{
	"asset":{
		"version":"2.0",
		"generator":"Created using the official Cinema 4D glTF Exporter 1.000x284978"
	},
	"scenes":[{
		"nodes":[0]
	}],
	"nodes":[{
		"name":"Rostov_Logo_01",
		"children":[1,
		2,
		3,
		4,
		5]
	},
	{
		"name":"06",
		"translation":[16.583951950073243,
		-19.04546356201172,
		-16.51712417602539],
		"rotation":[0.0,
		0.0,
		0.0,
		-1.0],
		"scale":[1.0,
		1.0,
		1.0],
		"mesh":0
	},
	{
		"name":"05",
		"translation":[0.0,
		-16.25,
		0.0],
		"rotation":[0.0,
		0.0,
		0.0,
		-1.0],
		"scale":[1.0,
		1.0,
		1.0],
		"mesh":1
	},
	{
		"name":"04",
		"translation":[16.583951950073243,
		60.19655990600586,
		16.583999633789064],
		"rotation":[0.0,
		0.0,
		0.0,
		-1.0],
		"scale":[1.0,
		1.0,
		1.0],
		"mesh":2
	},
	{
		"name":"02_and_03",
		"translation":[16.583951950073243,
		-20.382896423339845,
		-16.583999633789064],
		"rotation":[0.0,
		0.0,
		0.0,
		-1.0],
		"scale":[1.0,
		1.0,
		1.0],
		"mesh":3
	},
	{
		"name":"01",
		"translation":[16.583951950073243,
		-21.586559295654298,
		-16.583961486816408],
		"rotation":[0.0,
		0.0,
		0.0,
		-1.0],
		"scale":[1.0,
		1.0,
		1.0],
		"mesh":4
	}],
	"materials":[{
		"emissiveFactor":[0.0,
		0.0,
		0.0],
		"pbrMetallicRoughness":{
			"baseColorFactor":[1.0,
			0.33333333333333328,
			0.0,
			1.0],
			"metallicRoughnessTexture":{
				"index":0
			},
			"metallicFactor":1.0,
			"roughnessFactor":1.0
		},
		"normalTexture":{
			"index":1,
			"scale":0.25
		},
		"alphaMode":"OPAQUE",
		"doubleSided":false,
		"name":"Mat"
	}],
	"meshes":[{
		"name":"06",
		"primitives":[{
			"attributes":{
				"POSITION":1,
				"NORMAL":2,
				"TEXCOORD_0":3
			},
			"indices":0,
			"material":0
		}]
	},
	{
		"name":"05",
		"primitives":[{
			"attributes":{
				"POSITION":5,
				"NORMAL":6,
				"TEXCOORD_0":7
			},
			"indices":4,
			"material":0
		}]
	},
	{
		"name":"04",
		"primitives":[{
			"attributes":{
				"POSITION":9,
				"NORMAL":10,
				"TEXCOORD_0":11
			},
			"indices":8,
			"material":0
		}]
	},
	{
		"name":"02_and_03",
		"primitives":[{
			"attributes":{
				"POSITION":13,
				"NORMAL":14,
				"TEXCOORD_0":15
			},
			"indices":12,
			"material":0
		}]
	},
	{
		"name":"01",
		"primitives":[{
			"attributes":{
				"POSITION":17,
				"NORMAL":18,
				"TEXCOORD_0":19
			},
			"indices":16,
			"material":0
		}]
	}],
	"accessors":[{
		"bufferView":0,
		"componentType":5123,
		"type":"SCALAR",
		"count":108804,
		"byteOffset":0,
		"min":[0],
		"max":[25402]
	},
	{
		"bufferView":1,
		"componentType":5126,
		"type":"VEC3",
		"count":25403,
		"byteOffset":0,
		"min":[-157.48793029785157,
		-124.44676971435547,
		15.867124557495118],
		"max":[124.45367431640625,
		124.44676971435547,
		23.667123794555665]
	},
	{
		"bufferView":1,
		"componentType":5126,
		"type":"VEC3",
		"count":25403,
		"byteOffset":12,
		"min":[-1.0,
		-1.0,
		-1.0],
		"max":[1.0,
		1.0,
		1.0]
	},
	{
		"bufferView":1,
		"componentType":5126,
		"type":"VEC2",
		"count":25403,
		"byteOffset":24,
		"min":[0.0,
		0.0],
		"max":[1.0,
		1.0]
	},
	{
		"bufferView":2,
		"componentType":5123,
		"type":"SCALAR",
		"count":13440,
		"byteOffset":0,
		"min":[0],
		"max":[3269]
	},
	{
		"bufferView":3,
		"componentType":5126,
		"type":"VEC3",
		"count":3270,
		"byteOffset":0,
		"min":[0.9361637830734253,
		44.21477127075195,
		-1.2999999523162842],
		"max":[65.39974212646485,
		108.6783447265625,
		4.550000190734863]
	},
	{
		"bufferView":3,
		"componentType":5126,
		"type":"VEC3",
		"count":3270,
		"byteOffset":12,
		"min":[-0.9999708533287048,
		-0.9999679327011108,
		-1.0],
		"max":[0.9999996423721314,
		0.9999832510948181,
		1.0]
	},
	{
		"bufferView":3,
		"componentType":5126,
		"type":"VEC2",
		"count":3270,
		"byteOffset":24,
		"min":[0.0,
		0.0],
		"max":[1.0,
		1.0]
	},
	{
		"bufferView":4,
		"componentType":5123,
		"type":"SCALAR",
		"count":4884,
		"byteOffset":0,
		"min":[0],
		"max":[1089]
	},
	{
		"bufferView":5,
		"componentType":5126,
		"type":"VEC3",
		"count":1090,
		"byteOffset":0,
		"min":[-14.310370445251465,
		-30.894371032714845,
		-17.884000778198243],
		"max":[47.478370666503909,
		30.894371032714845,
		-13.984000205993653]
	},
	{
		"bufferView":5,
		"componentType":5126,
		"type":"VEC3",
		"count":1090,
		"byteOffset":12,
		"min":[-0.9998729825019836,
		-0.9998712539672852,
		-1.0],
		"max":[0.9998730421066284,
		0.9998688101768494,
		1.0]
	},
	{
		"bufferView":5,
		"componentType":5126,
		"type":"VEC2",
		"count":1090,
		"byteOffset":24,
		"min":[0.0,
		0.0],
		"max":[1.0,
		1.0]
	},
	{
		"bufferView":6,
		"componentType":5123,
		"type":"SCALAR",
		"count":15120,
		"byteOffset":0,
		"min":[0],
		"max":[3493]
	},
	{
		"bufferView":7,
		"componentType":5126,
		"type":"VEC3",
		"count":3494,
		"byteOffset":0,
		"min":[-172.66270446777345,
		-151.1951446533203,
		15.284000396728516],
		"max":[139.44468688964845,
		151.1951446533203,
		21.134000778198243]
	},
	{
		"bufferView":7,
		"componentType":5126,
		"type":"VEC3",
		"count":3494,
		"byteOffset":12,
		"min":[-0.9999996423721314,
		-0.9999988079071045,
		-1.0],
		"max":[0.9999998211860657,
		0.9999926090240479,
		1.0]
	},
	{
		"bufferView":7,
		"componentType":5126,
		"type":"VEC2",
		"count":3494,
		"byteOffset":24,
		"min":[0.0,
		0.0],
		"max":[1.0,
		1.0]
	},
	{
		"bufferView":8,
		"componentType":5123,
		"type":"SCALAR",
		"count":7548,
		"byteOffset":0,
		"min":[0],
		"max":[1741]
	},
	{
		"bufferView":9,
		"componentType":5126,
		"type":"VEC3",
		"count":1742,
		"byteOffset":0,
		"min":[-177.4573211669922,
		-158.55093383789063,
		2.283961772918701],
		"max":[144.27618408203126,
		158.55093383789063,
		17.883962631225587]
	},
	{
		"bufferView":9,
		"componentType":5126,
		"type":"VEC3",
		"count":1742,
		"byteOffset":12,
		"min":[-0.9999420642852783,
		-0.9872466921806336,
		-1.0],
		"max":[0.9999905228614807,
		0.9999926090240479,
		1.0]
	},
	{
		"bufferView":9,
		"componentType":5126,
		"type":"VEC2",
		"count":1742,
		"byteOffset":24,
		"min":[0.0,
		0.0],
		"max":[1.0,
		1.0]
	}],
	"bufferViews":[{
		"buffer":0,
		"byteOffset":0,
		"byteLength":217608,
		"target":34963
	},
	{
		"buffer":0,
		"byteOffset":217608,
		"byteLength":812896,
		"target":34962,
		"byteStride":32
	},
	{
		"buffer":1,
		"byteOffset":0,
		"byteLength":26880,
		"target":34963
	},
	{
		"buffer":1,
		"byteOffset":26880,
		"byteLength":104640,
		"target":34962,
		"byteStride":32
	},
	{
		"buffer":2,
		"byteOffset":0,
		"byteLength":9768,
		"target":34963
	},
	{
		"buffer":2,
		"byteOffset":9768,
		"byteLength":34880,
		"target":34962,
		"byteStride":32
	},
	{
		"buffer":3,
		"byteOffset":0,
		"byteLength":30240,
		"target":34963
	},
	{
		"buffer":3,
		"byteOffset":30240,
		"byteLength":111808,
		"target":34962,
		"byteStride":32
	},
	{
		"buffer":4,
		"byteOffset":0,
		"byteLength":15096,
		"target":34963
	},
	{
		"buffer":4,
		"byteOffset":15096,
		"byteLength":55744,
		"target":34962,
		"byteStride":32
	}],
	"buffers":[{
		"uri":"data:application/octet-stream;base64,",
		"byteLength":1030504
	},
	{
		"uri":"data:application/octet-stream;base64,",
		"byteLength":131520
	},
	{
		"uri":"data:application/octet-stream;base64,",
		"byteLength":44648
	},
	{
		"uri":"data:application/octet-stream;base64,",
		"byteLength":142048
	},
	{
		"uri":"data:application/octet-stream;base64,",
		"byteLength":70840
	}],
	"images":[{
		"uri":"data:image/jpeg;base64,"
	},
	{
		"uri":"data:image/jpeg;base64,"
	}],
	"samplers":[{
		"magFilter":9729,
		"minFilter":9729,
		"wrapS":10497,
		"wrapT":10497
	},
	{
		"magFilter":9729,
		"minFilter":9729,
		"wrapS":10497,
		"wrapT":10497
	}],
	"textures":[{
		"sampler":0,
		"source":0
	},
	{
		"sampler":1,
		"source":1
	}]
}