{
	"asset":{
		"version":"2.0",
		"generator":"Created using the official Cinema 4D glTF Exporter 1.000x284978"
	},
	"scenes":[{
		"nodes":[0]
	}],
	"nodes":[{
		"name":"Arsenal_Logo",
		"children":[1,
		2,
		3,
		4,
		5,
		6,
		7]
	},
	{
		"name":"08",
		"translation":[0.7509250044822693,
		-34.38705062866211,
		0.0],
		"rotation":[0.0,
		0.0,
		0.0,
		-1.0],
		"scale":[1.0,
		1.0,
		1.0],
		"mesh":0
	},
	{
		"name":"07",
		"translation":[0.7009750008583069,
		48.1015510559082,
		1.0],
		"rotation":[0.0,
		0.0,
		0.0,
		-1.0],
		"scale":[1.0,
		1.0,
		1.0],
		"mesh":1
	},
	{
		"name":"06",
		"translation":[0.7508749961853027,
		-48.1015510559082,
		0.0],
		"rotation":[0.0,
		0.0,
		0.0,
		-1.0],
		"scale":[1.0,
		1.0,
		1.0],
		"mesh":2
	},
	{
		"name":"04",
		"translation":[0.7509250044822693,
		-21.323150634765626,
		0.0],
		"rotation":[0.0,
		0.0,
		0.0,
		-1.0],
		"scale":[1.0,
		1.0,
		1.0],
		"mesh":3
	},
	{
		"name":"03",
		"translation":[-0.25007501244544985,
		-1.7019000053405762,
		2.0],
		"rotation":[0.0,
		0.0,
		0.0,
		-1.0],
		"scale":[1.0,
		1.0,
		1.0],
		"mesh":4
	},
	{
		"name":"02",
		"translation":[0.8510749936103821,
		-32.88529968261719,
		0.0],
		"rotation":[0.0,
		0.0,
		0.0,
		-1.0],
		"scale":[1.0,
		1.0,
		1.0],
		"mesh":5
	},
	{
		"name":"01",
		"translation":[0.751075029373169,
		-33.08530044555664,
		0.0],
		"rotation":[0.0,
		0.0,
		0.0,
		-1.0],
		"scale":[1.0,
		1.0,
		1.0],
		"mesh":6
	}],
	"meshes":[{
		"name":"08",
		"primitives":[{
			"attributes":{
				"POSITION":1,
				"NORMAL":2,
				"TEXCOORD_0":3
			},
			"indices":0,
			"material":0
		}]
	},
	{
		"name":"07",
		"primitives":[{
			"attributes":{
				"POSITION":5,
				"NORMAL":6,
				"TEXCOORD_0":7
			},
			"indices":4,
			"material":0
		}]
	},
	{
		"name":"06",
		"primitives":[{
			"attributes":{
				"POSITION":9,
				"NORMAL":10,
				"TEXCOORD_0":11
			},
			"indices":8,
			"material":0
		}]
	},
	{
		"name":"04",
		"primitives":[{
			"attributes":{
				"POSITION":13,
				"NORMAL":14,
				"TEXCOORD_0":15
			},
			"indices":12,
			"material":0
		}]
	},
	{
		"name":"03",
		"primitives":[{
			"attributes":{
				"POSITION":17,
				"NORMAL":18,
				"TEXCOORD_0":19
			},
			"indices":16,
			"material":0
		}]
	},
	{
		"name":"02",
		"primitives":[{
			"attributes":{
				"POSITION":21,
				"NORMAL":22,
				"TEXCOORD_0":23
			},
			"indices":20,
			"material":0
		}]
	},
	{
		"name":"01",
		"primitives":[{
			"attributes":{
				"POSITION":25,
				"NORMAL":26,
				"TEXCOORD_0":27
			},
			"indices":24,
			"material":0
		}]
	}],
	"accessors":[{
		"bufferView":0,
		"type":"SCALAR",
		"componentType":5123,
		"count":14316,
		"byteOffset":0,
		"min":[0],
		"max":[3769]
	},
	{
		"bufferView":1,
		"type":"VEC3",
		"componentType":5126,
		"count":3770,
		"byteOffset":0,
		"min":[-48.75199890136719,
		-48.752498626708987,
		-1.0],
		"max":[48.75199890136719,
		48.752498626708987,
		31.0]
	},
	{
		"bufferView":1,
		"type":"VEC3",
		"componentType":5126,
		"count":3770,
		"byteOffset":12,
		"min":[-0.9999131560325623,
		-0.9999625086784363,
		-1.0],
		"max":[0.9999998211860657,
		0.9999997019767761,
		1.0]
	},
	{
		"bufferView":1,
		"type":"VEC2",
		"componentType":5126,
		"count":3770,
		"byteOffset":24,
		"min":[0.0,
		0.0],
		"max":[1.0,
		1.0]
	},
	{
		"bufferView":2,
		"type":"SCALAR",
		"componentType":5123,
		"count":14904,
		"byteOffset":0,
		"min":[0],
		"max":[5391]
	},
	{
		"bufferView":3,
		"type":"VEC3",
		"componentType":5126,
		"count":5392,
		"byteOffset":0,
		"min":[-115.87394714355469,
		-48.85210037231445,
		-1.0],
		"max":[115.87394714355469,
		48.85210037231445,
		28.0]
	},
	{
		"bufferView":3,
		"type":"VEC3",
		"componentType":5126,
		"count":5392,
		"byteOffset":12,
		"min":[-1.0,
		-1.0,
		-1.0],
		"max":[1.0,
		1.0,
		1.0]
	},
	{
		"bufferView":3,
		"type":"VEC2",
		"componentType":5126,
		"count":5392,
		"byteOffset":24,
		"min":[0.0,
		0.0],
		"max":[1.0,
		1.0]
	},
	{
		"bufferView":4,
		"type":"SCALAR",
		"componentType":5123,
		"count":2244,
		"byteOffset":0,
		"min":[0],
		"max":[690]
	},
	{
		"bufferView":5,
		"type":"VEC3",
		"componentType":5126,
		"count":691,
		"byteOffset":0,
		"min":[-98.20504760742188,
		-39.84299850463867,
		-0.4000000059604645],
		"max":[98.20504760742188,
		39.84299850463867,
		22.399999618530275]
	},
	{
		"bufferView":5,
		"type":"VEC3",
		"componentType":5126,
		"count":691,
		"byteOffset":12,
		"min":[-1.0,
		-0.9374718070030212,
		-1.0],
		"max":[1.0,
		1.0,
		1.0]
	},
	{
		"bufferView":5,
		"type":"VEC2",
		"componentType":5126,
		"count":691,
		"byteOffset":24,
		"min":[0.0,
		0.0],
		"max":[1.0,
		1.0]
	},
	{
		"bufferView":6,
		"type":"SCALAR",
		"componentType":5123,
		"count":29472,
		"byteOffset":0,
		"min":[0],
		"max":[9766]
	},
	{
		"bufferView":7,
		"type":"VEC3",
		"componentType":5126,
		"count":9767,
		"byteOffset":0,
		"min":[-117.6259994506836,
		-133.79339599609376,
		-0.4000000059604645],
		"max":[117.6259994506836,
		133.79339599609376,
		25.399999618530275]
	},
	{
		"bufferView":7,
		"type":"VEC3",
		"componentType":5126,
		"count":9767,
		"byteOffset":12,
		"min":[-1.0,
		-1.0,
		-1.0],
		"max":[1.0,
		1.0,
		1.0]
	},
	{
		"bufferView":7,
		"type":"VEC2",
		"componentType":5126,
		"count":9767,
		"byteOffset":24,
		"min":[-0.23391690850257874,
		0.0],
		"max":[1.0,
		1.300407886505127]
	},
	{
		"bufferView":8,
		"type":"SCALAR",
		"componentType":5123,
		"count":50856,
		"byteOffset":0,
		"min":[0],
		"max":[13674]
	},
	{
		"bufferView":9,
		"type":"VEC3",
		"componentType":5126,
		"count":13675,
		"byteOffset":0,
		"min":[-149.9879608154297,
		-120.17864990234375,
		-1.0],
		"max":[149.99118041992188,
		120.19547271728516,
		21.0]
	},
	{
		"bufferView":9,
		"type":"VEC3",
		"componentType":5126,
		"count":13675,
		"byteOffset":12,
		"min":[-1.0,
		-1.0,
		-1.0],
		"max":[1.0,
		1.0,
		1.0]
	},
	{
		"bufferView":9,
		"type":"VEC2",
		"componentType":5126,
		"count":13675,
		"byteOffset":24,
		"min":[0.0,
		0.0],
		"max":[1.0,
		1.0]
	},
	{
		"bufferView":10,
		"type":"SCALAR",
		"componentType":5123,
		"count":61272,
		"byteOffset":0,
		"min":[0],
		"max":[15489]
	},
	{
		"bufferView":11,
		"type":"VEC3",
		"componentType":5126,
		"count":15490,
		"byteOffset":0,
		"min":[-130.14503479003907,
		-138.54824829101563,
		-1.0],
		"max":[130.2498779296875,
		138.8977508544922,
		16.0]
	},
	{
		"bufferView":11,
		"type":"VEC3",
		"componentType":5126,
		"count":15490,
		"byteOffset":12,
		"min":[-1.0,
		-1.0,
		-1.0],
		"max":[1.0,
		1.0,
		1.0]
	},
	{
		"bufferView":11,
		"type":"VEC2",
		"componentType":5126,
		"count":15490,
		"byteOffset":24,
		"min":[0.0,
		0.0],
		"max":[1.0,
		1.0]
	},
	{
		"bufferView":12,
		"type":"SCALAR",
		"componentType":5123,
		"count":8616,
		"byteOffset":0,
		"min":[0],
		"max":[2247]
	},
	{
		"bufferView":13,
		"type":"VEC3",
		"componentType":5126,
		"count":2248,
		"byteOffset":0,
		"min":[-136.3625946044922,
		-145.15524291992188,
		-2.0],
		"max":[136.4185791015625,
		145.67596435546876,
		12.0]
	},
	{
		"bufferView":13,
		"type":"VEC3",
		"componentType":5126,
		"count":2248,
		"byteOffset":12,
		"min":[-0.9999925494194031,
		-1.0,
		-1.0],
		"max":[0.9999936819076538,
		1.0,
		1.0]
	},
	{
		"bufferView":13,
		"type":"VEC2",
		"componentType":5126,
		"count":2248,
		"byteOffset":24,
		"min":[0.0,
		0.0],
		"max":[1.0,
		1.0]
	}],
	"bufferViews":[{
		"buffer":0,
		"byteOffset":0,
		"byteLength":28632,
		"target":34963
	},
	{
		"buffer":0,
		"byteOffset":28632,
		"byteLength":120640,
		"target":34962,
		"byteStride":32
	},
	{
		"buffer":1,
		"byteOffset":0,
		"byteLength":29808,
		"target":34963
	},
	{
		"buffer":1,
		"byteOffset":29808,
		"byteLength":172544,
		"target":34962,
		"byteStride":32
	},
	{
		"buffer":2,
		"byteOffset":0,
		"byteLength":4488,
		"target":34963
	},
	{
		"buffer":2,
		"byteOffset":4488,
		"byteLength":22112,
		"target":34962,
		"byteStride":32
	},
	{
		"buffer":3,
		"byteOffset":0,
		"byteLength":58944,
		"target":34963
	},
	{
		"buffer":3,
		"byteOffset":58944,
		"byteLength":312544,
		"target":34962,
		"byteStride":32
	},
	{
		"buffer":4,
		"byteOffset":0,
		"byteLength":101712,
		"target":34963
	},
	{
		"buffer":4,
		"byteOffset":101712,
		"byteLength":437600,
		"target":34962,
		"byteStride":32
	},
	{
		"buffer":5,
		"byteOffset":0,
		"byteLength":122544,
		"target":34963
	},
	{
		"buffer":5,
		"byteOffset":122544,
		"byteLength":495680,
		"target":34962,
		"byteStride":32
	},
	{
		"buffer":6,
		"byteOffset":0,
		"byteLength":17232,
		"target":34963
	},
	{
		"buffer":6,
		"byteOffset":17232,
		"byteLength":71936,
		"target":34962,
		"byteStride":32
	}],
	"buffers":[{
		"uri":"data:application/octet-stream;base64,",
		"byteLength":149272
	},
	{
		"uri":"data:application/octet-stream;base64,",
		"byteLength":202352
	},
	{
		"uri":"data:application/octet-stream;base64,",
		"byteLength":26600
	},
	{
		"uri":"data:application/octet-stream;base64,",
		"byteLength":371488
	},
	{
		"uri":"data:application/octet-stream;base64,",
		"byteLength":539312
	},
	{
		"uri":"data:application/octet-stream;base64,",
		"byteLength":618224
	},
	{
		"uri":"data:application/octet-stream;base64,",
		"byteLength":89168
	}],
	"images":[{
		"uri":"data:image/jpeg;base64,"
	}],
	"textures":[{
		"source":0,
		"sampler":0
	}],
	"samplers":[{
		"magFilter":9729,
		"minFilter":9729,
		"wrapS":10497,
		"wrapT":10497
	}],
	"materials":[{
		"pbrMetallicRoughness":{
			"baseColorFactor":[1.0,
			0.33333333333333328,
			0.0,
			1.0],
			"metallicFactor":1.0,
			"roughnessFactor":0.02
		},
		"normalTexture":{
			"index":0,
			"scale":0.25
		},
		"emissiveFactor":[0.0,
		0.0,
		0.0],
		"alphaMode":"OPAQUE",
		"doubleSided":false,
		"name":"Mat"
	}]
}