{
	"asset":{
		"version":"2.0",
		"generator":"Created using the official Cinema 4D glTF Exporter 1.000x284978"
	},
	"scenes":[{
		"nodes":[0]
	}],
	"nodes":[{
		"name":"Ufa_Logo",
		"children":[1,
		2,
		3,
		4,
		5,
		6]
	},
	{
		"name":"07",
		"translation":[-0.20578999817371369,
		-81.18424224853516,
		-2.6609371293148885e-17],
		"rotation":[0.0,
		-0.7071067690849304,
		0.0,
		-0.7071067690849304],
		"scale":[1.0,
		1.0,
		1.0],
		"mesh":0
	},
	{
		"name":"06",
		"mesh":1
	},
	{
		"name":"04",
		"translation":[0.6633380055427551,
		43.64435577392578,
		2.6609371293148885e-17],
		"rotation":[0.0,
		-0.7071067690849304,
		0.0,
		-0.7071067690849304],
		"scale":[1.0,
		1.0,
		1.0],
		"mesh":2
	},
	{
		"name":"03",
		"translation":[0.32565000653266909,
		81.377685546875,
		5.9319441967795829e-18],
		"rotation":[0.0,
		-0.7071067690849304,
		0.0,
		-0.7071067690849304],
		"scale":[1.0,
		1.0,
		1.0],
		"mesh":3
	},
	{
		"name":"02",
		"translation":[0.13241800665855409,
		-19.179758071899415,
		-5.900103533460579e-18],
		"rotation":[0.0,
		-0.7071067690849304,
		0.0,
		-0.7071067690849304],
		"scale":[1.0,
		1.0,
		1.0],
		"mesh":4
	},
	{
		"name":"01",
		"mesh":5
	}],
	"meshes":[{
		"name":"07",
		"primitives":[{
			"attributes":{
				"POSITION":1,
				"NORMAL":2,
				"TEXCOORD_0":3
			},
			"indices":0,
			"material":0
		}]
	},
	{
		"name":"06",
		"primitives":[{
			"attributes":{
				"POSITION":5,
				"NORMAL":6,
				"TEXCOORD_0":7
			},
			"indices":4,
			"material":0
		}]
	},
	{
		"name":"04",
		"primitives":[{
			"attributes":{
				"POSITION":9,
				"NORMAL":10,
				"TEXCOORD_0":11
			},
			"indices":8,
			"material":0
		}]
	},
	{
		"name":"03",
		"primitives":[{
			"attributes":{
				"POSITION":13,
				"NORMAL":14,
				"TEXCOORD_0":15
			},
			"indices":12,
			"material":0
		}]
	},
	{
		"name":"02",
		"primitives":[{
			"attributes":{
				"POSITION":17,
				"NORMAL":18,
				"TEXCOORD_0":19
			},
			"indices":16,
			"material":0
		}]
	},
	{
		"name":"01",
		"primitives":[{
			"attributes":{
				"POSITION":21,
				"NORMAL":22,
				"TEXCOORD_0":23
			},
			"indices":20,
			"material":0
		}]
	}],
	"accessors":[{
		"bufferView":0,
		"type":"SCALAR",
		"componentType":5123,
		"count":19584,
		"byteOffset":0,
		"min":[0],
		"max":[4931]
	},
	{
		"bufferView":1,
		"type":"VEC3",
		"componentType":5126,
		"count":4932,
		"byteOffset":0,
		"min":[-16.799999237060548,
		-36.18939971923828,
		-36.18939971923828],
		"max":[0.800000011920929,
		36.18939971923828,
		36.18939971923828]
	},
	{
		"bufferView":1,
		"type":"VEC3",
		"componentType":5126,
		"count":4932,
		"byteOffset":12,
		"min":[-1.0,
		-0.9998703598976135,
		-0.9998731017112732],
		"max":[1.0,
		0.9998831152915955,
		0.9998788833618164]
	},
	{
		"bufferView":1,
		"type":"VEC2",
		"componentType":5126,
		"count":4932,
		"byteOffset":24,
		"min":[0.0,
		0.0],
		"max":[1.0,
		1.0]
	},
	{
		"bufferView":2,
		"type":"SCALAR",
		"componentType":5123,
		"count":4416,
		"byteOffset":0,
		"min":[0],
		"max":[1353]
	},
	{
		"bufferView":3,
		"type":"VEC3",
		"componentType":5126,
		"count":1354,
		"byteOffset":0,
		"min":[-67.27590942382813,
		-148.3521270751953,
		-0.800000011920929],
		"max":[67.05880737304688,
		-14.017406463623047,
		12.800000190734864]
	},
	{
		"bufferView":3,
		"type":"VEC3",
		"componentType":5126,
		"count":1354,
		"byteOffset":12,
		"min":[-0.9998694658279419,
		-0.9998695254325867,
		-1.0],
		"max":[0.9998695254325867,
		0.9998694658279419,
		1.0]
	},
	{
		"bufferView":3,
		"type":"VEC2",
		"componentType":5126,
		"count":1354,
		"byteOffset":24,
		"min":[0.0,
		0.0],
		"max":[1.0,
		1.0]
	},
	{
		"bufferView":4,
		"type":"SCALAR",
		"componentType":5123,
		"count":51324,
		"byteOffset":0,
		"min":[0],
		"max":[14599]
	},
	{
		"bufferView":5,
		"type":"VEC3",
		"componentType":5126,
		"count":14600,
		"byteOffset":0,
		"min":[-8.199999809265137,
		-4.970160007476807,
		-83.18730926513672],
		"max":[0.20000000298023225,
		4.970160007476807,
		83.18730926513672]
	},
	{
		"bufferView":5,
		"type":"VEC3",
		"componentType":5126,
		"count":14600,
		"byteOffset":12,
		"min":[-1.0,
		-1.0,
		-1.0],
		"max":[1.0,
		1.0,
		1.0]
	},
	{
		"bufferView":5,
		"type":"VEC2",
		"componentType":5126,
		"count":14600,
		"byteOffset":24,
		"min":[-0.4699726104736328,
		0.0],
		"max":[1.0,
		1.0]
	},
	{
		"bufferView":6,
		"type":"SCALAR",
		"componentType":5123,
		"count":20292,
		"byteOffset":0,
		"min":[0],
		"max":[5339]
	},
	{
		"bufferView":7,
		"type":"VEC3",
		"componentType":5126,
		"count":5340,
		"byteOffset":0,
		"min":[-8.800000190734864,
		-20.02473258972168,
		-71.8478775024414],
		"max":[0.800000011920929,
		20.02473258972168,
		71.8478775024414]
	},
	{
		"bufferView":7,
		"type":"VEC3",
		"componentType":5126,
		"count":5340,
		"byteOffset":12,
		"min":[-1.0,
		-1.0,
		-1.0],
		"max":[1.0,
		1.0,
		1.0]
	},
	{
		"bufferView":7,
		"type":"VEC2",
		"componentType":5126,
		"count":5340,
		"byteOffset":24,
		"min":[0.0,
		0.0],
		"max":[1.0,
		1.0]
	},
	{
		"bufferView":8,
		"type":"SCALAR",
		"componentType":5123,
		"count":5400,
		"byteOffset":0,
		"min":[0],
		"max":[1469]
	},
	{
		"bufferView":9,
		"type":"VEC3",
		"componentType":5126,
		"count":1470,
		"byteOffset":0,
		"min":[-4.800000190734863,
		-150.20948791503907,
		-87.77111053466797],
		"max":[0.800000011920929,
		150.20948791503907,
		87.77111053466797]
	},
	{
		"bufferView":9,
		"type":"VEC3",
		"componentType":5126,
		"count":1470,
		"byteOffset":12,
		"min":[-1.0,
		-1.0,
		-1.0],
		"max":[1.0,
		1.0,
		1.0]
	},
	{
		"bufferView":9,
		"type":"VEC2",
		"componentType":5126,
		"count":1470,
		"byteOffset":24,
		"min":[0.0,
		0.0],
		"max":[1.0,
		1.0]
	},
	{
		"bufferView":10,
		"type":"SCALAR",
		"componentType":5123,
		"count":3396,
		"byteOffset":0,
		"min":[0],
		"max":[865]
	},
	{
		"bufferView":11,
		"type":"VEC3",
		"componentType":5126,
		"count":866,
		"byteOffset":0,
		"min":[-93.5255126953125,
		-175.2766876220703,
		-16.799999237060548],
		"max":[93.78993225097656,
		136.7233123779297,
		0.800000011920929]
	},
	{
		"bufferView":11,
		"type":"VEC3",
		"componentType":5126,
		"count":866,
		"byteOffset":12,
		"min":[-1.0,
		-0.9998921155929565,
		-1.0],
		"max":[1.0,
		1.0,
		1.0]
	},
	{
		"bufferView":11,
		"type":"VEC2",
		"componentType":5126,
		"count":866,
		"byteOffset":24,
		"min":[0.0,
		0.0],
		"max":[1.0,
		1.0]
	}],
	"bufferViews":[{
		"buffer":0,
		"byteOffset":0,
		"byteLength":39168,
		"target":34963
	},
	{
		"buffer":0,
		"byteOffset":39168,
		"byteLength":157824,
		"target":34962,
		"byteStride":32
	},
	{
		"buffer":1,
		"byteOffset":0,
		"byteLength":8832,
		"target":34963
	},
	{
		"buffer":1,
		"byteOffset":8832,
		"byteLength":43328,
		"target":34962,
		"byteStride":32
	},
	{
		"buffer":2,
		"byteOffset":0,
		"byteLength":102648,
		"target":34963
	},
	{
		"buffer":2,
		"byteOffset":102648,
		"byteLength":467200,
		"target":34962,
		"byteStride":32
	},
	{
		"buffer":3,
		"byteOffset":0,
		"byteLength":40584,
		"target":34963
	},
	{
		"buffer":3,
		"byteOffset":40584,
		"byteLength":170880,
		"target":34962,
		"byteStride":32
	},
	{
		"buffer":4,
		"byteOffset":0,
		"byteLength":10800,
		"target":34963
	},
	{
		"buffer":4,
		"byteOffset":10800,
		"byteLength":47040,
		"target":34962,
		"byteStride":32
	},
	{
		"buffer":5,
		"byteOffset":0,
		"byteLength":6792,
		"target":34963
	},
	{
		"buffer":5,
		"byteOffset":6792,
		"byteLength":27712,
		"target":34962,
		"byteStride":32
	}],
	"buffers":[{
		"uri":"data:application/octet-stream;base64,",
		"byteLength":196992
	},
	{
		"uri":"data:application/octet-stream;base64,",
		"byteLength":52160
	},
	{
		"uri":"data:application/octet-stream;base64,",
		"byteLength":569848
	},
	{
		"uri":"data:application/octet-stream;base64,",
		"byteLength":211464
	},
	{
		"uri":"data:application/octet-stream;base64,",
		"byteLength":57840
	},
	{
		"uri":"data:application/octet-stream;base64,",
		"byteLength":34504
	}],
	"images":[{
		"uri":"data:image/jpeg;base64,"
	},
	{
		"uri":"data:image/jpeg;base64,"
	}],
	"textures":[{
		"source":0,
		"sampler":0
	},
	{
		"source":1,
		"sampler":1
	}],
	"samplers":[{
		"magFilter":9729,
		"minFilter":9729,
		"wrapS":10497,
		"wrapT":10497
	},
	{
		"magFilter":9729,
		"minFilter":9729,
		"wrapS":10497,
		"wrapT":10497
	}],
	"materials":[{
		"pbrMetallicRoughness":{
			"baseColorFactor":[1.0,
			0.33333333333333328,
			0.0,
			1.0],
			"metallicRoughnessTexture":{
				"index":0
			},
			"metallicFactor":1.0,
			"roughnessFactor":1.0
		},
		"normalTexture":{
			"index":1,
			"scale":0.25
		},
		"emissiveFactor":[0.0,
		0.0,
		0.0],
		"alphaMode":"OPAQUE",
		"doubleSided":false,
		"name":"Mat"
	}]
}