{
	"asset":{
		"version":"2.0",
		"generator":"Created using the official Cinema 4D glTF Exporter 1.000x284978"
	},
	"scenes":[{
		"nodes":[0]
	}],
	"nodes":[{
		"name":"Ural_Logo",
		"children":[1,
		2,
		3,
		4,
		5,
		6,
		7,
		8,
		9]
	},
	{
		"name":"09",
		"translation":[1.1306159496307374,
		-66.16028594970703,
		0.0],
		"rotation":[0.0,
		0.0,
		0.0,
		-1.0],
		"scale":[1.0,
		1.0,
		1.0],
		"mesh":0
	},
	{
		"name":"08",
		"translation":[1.1112474203109742,
		-64.9345932006836,
		0.0],
		"rotation":[0.0,
		0.0,
		0.0,
		-1.0],
		"scale":[1.0,
		1.0,
		1.0],
		"mesh":1
	},
	{
		"name":"07",
		"translation":[1.1112474203109742,
		-64.93457794189453,
		0.0],
		"rotation":[0.0,
		0.0,
		0.0,
		-1.0],
		"scale":[1.0,
		1.0,
		1.0],
		"mesh":2
	},
	{
		"name":"06",
		"translation":[-1.2607024908065797,
		14.114723205566407,
		0.0],
		"rotation":[0.0,
		0.0,
		0.0,
		-1.0],
		"scale":[1.0,
		1.0,
		1.0],
		"mesh":3
	},
	{
		"name":"05",
		"translation":[-1.2626816034317017,
		14.116705894470215,
		0.0],
		"rotation":[0.0,
		0.0,
		0.0,
		-1.0],
		"scale":[1.0,
		1.0,
		1.0],
		"mesh":4
	},
	{
		"name":"04",
		"translation":[1.2626816034317017,
		-8.116170883178711,
		0.0],
		"rotation":[0.0,
		0.0,
		0.0,
		-1.0],
		"scale":[1.0,
		1.0,
		1.0],
		"mesh":5
	},
	{
		"name":"03",
		"translation":[1.11082124710083,
		-74.11670684814453,
		0.0],
		"rotation":[0.0,
		0.0,
		0.0,
		-1.0],
		"scale":[1.0,
		1.0,
		1.0],
		"mesh":6
	},
	{
		"name":"02",
		"translation":[1.2626816034317017,
		-7.31636381149292,
		0.0],
		"rotation":[0.0,
		0.0,
		0.0,
		-1.0],
		"scale":[1.0,
		1.0,
		1.0],
		"mesh":7
	},
	{
		"name":"01",
		"translation":[1.111262321472168,
		-8.894359588623047,
		0.0],
		"rotation":[0.0,
		0.0,
		0.0,
		-1.0],
		"scale":[1.0,
		1.0,
		1.0],
		"mesh":8
	}],
	"meshes":[{
		"name":"09",
		"primitives":[{
			"attributes":{
				"POSITION":1,
				"NORMAL":2,
				"TEXCOORD_0":3
			},
			"indices":0,
			"material":0
		}]
	},
	{
		"name":"08",
		"primitives":[{
			"attributes":{
				"POSITION":5,
				"NORMAL":6,
				"TEXCOORD_0":7
			},
			"indices":4,
			"material":0
		}]
	},
	{
		"name":"07",
		"primitives":[{
			"attributes":{
				"POSITION":9,
				"NORMAL":10,
				"TEXCOORD_0":11
			},
			"indices":8,
			"material":0
		}]
	},
	{
		"name":"06",
		"primitives":[{
			"attributes":{
				"POSITION":13,
				"NORMAL":14,
				"TEXCOORD_0":15
			},
			"indices":12,
			"material":0
		}]
	},
	{
		"name":"05",
		"primitives":[{
			"attributes":{
				"POSITION":17,
				"NORMAL":18,
				"TEXCOORD_0":19
			},
			"indices":16,
			"material":0
		}]
	},
	{
		"name":"04",
		"primitives":[{
			"attributes":{
				"POSITION":21,
				"NORMAL":22,
				"TEXCOORD_0":23
			},
			"indices":20,
			"material":0
		}]
	},
	{
		"name":"03",
		"primitives":[{
			"attributes":{
				"POSITION":25,
				"NORMAL":26,
				"TEXCOORD_0":27
			},
			"indices":24,
			"material":0
		}]
	},
	{
		"name":"02",
		"primitives":[{
			"attributes":{
				"POSITION":29,
				"NORMAL":30,
				"TEXCOORD_0":31
			},
			"indices":28,
			"material":0
		}]
	},
	{
		"name":"01",
		"primitives":[{
			"attributes":{
				"POSITION":33,
				"NORMAL":34,
				"TEXCOORD_0":35
			},
			"indices":32,
			"material":0
		}]
	}],
	"accessors":[{
		"bufferView":0,
		"type":"SCALAR",
		"componentType":5123,
		"count":32388,
		"byteOffset":0,
		"min":[0],
		"max":[7699]
	},
	{
		"bufferView":1,
		"type":"VEC3",
		"componentType":5126,
		"count":7700,
		"byteOffset":0,
		"min":[-42.11468505859375,
		-40.971954345703128,
		-0.6000000238418579],
		"max":[42.11468505859375,
		40.50457763671875,
		12.600000381469727]
	},
	{
		"bufferView":1,
		"type":"VEC3",
		"componentType":5126,
		"count":7700,
		"byteOffset":12,
		"min":[-0.9999949932098389,
		-0.9999967217445374,
		-1.0],
		"max":[0.9999997019767761,
		0.999997615814209,
		1.0]
	},
	{
		"bufferView":1,
		"type":"VEC2",
		"componentType":5126,
		"count":7700,
		"byteOffset":24,
		"min":[0.0,
		0.0],
		"max":[1.0,
		1.0]
	},
	{
		"bufferView":2,
		"type":"SCALAR",
		"componentType":5123,
		"count":3444,
		"byteOffset":0,
		"min":[0],
		"max":[865]
	},
	{
		"bufferView":3,
		"type":"VEC3",
		"componentType":5126,
		"count":866,
		"byteOffset":0,
		"min":[-41.90257263183594,
		-41.90264892578125,
		-0.6000000238418579],
		"max":[41.901092529296878,
		41.90184783935547,
		9.600000381469727]
	},
	{
		"bufferView":3,
		"type":"VEC3",
		"componentType":5126,
		"count":866,
		"byteOffset":12,
		"min":[-0.999942421913147,
		-0.9999426603317261,
		-1.0],
		"max":[0.9999423623085022,
		0.9999408721923828,
		1.0]
	},
	{
		"bufferView":3,
		"type":"VEC2",
		"componentType":5126,
		"count":866,
		"byteOffset":24,
		"min":[0.0,
		0.0],
		"max":[1.0,
		1.0]
	},
	{
		"bufferView":4,
		"type":"SCALAR",
		"componentType":5123,
		"count":6816,
		"byteOffset":0,
		"min":[0],
		"max":[1449]
	},
	{
		"bufferView":5,
		"type":"VEC3",
		"componentType":5126,
		"count":1450,
		"byteOffset":0,
		"min":[-42.47731399536133,
		-42.477455139160159,
		-0.3242046535015106],
		"max":[42.475860595703128,
		42.47686004638672,
		12.324204444885254]
	},
	{
		"bufferView":5,
		"type":"VEC3",
		"componentType":5126,
		"count":1450,
		"byteOffset":12,
		"min":[-0.9999423623085022,
		-0.9999408721923828,
		-0.9992109537124634],
		"max":[0.999942421913147,
		0.9999427199363709,
		0.9999999403953552]
	},
	{
		"bufferView":5,
		"type":"VEC2",
		"componentType":5126,
		"count":1450,
		"byteOffset":24,
		"min":[0.0,
		0.0],
		"max":[1.0,
		1.0]
	},
	{
		"bufferView":6,
		"type":"SCALAR",
		"componentType":5123,
		"count":23412,
		"byteOffset":0,
		"min":[0],
		"max":[6335]
	},
	{
		"bufferView":7,
		"type":"VEC3",
		"componentType":5126,
		"count":6336,
		"byteOffset":0,
		"min":[-85.71117401123047,
		-43.64352035522461,
		-1.2000000476837159],
		"max":[85.71117401123047,
		43.64352035522461,
		13.199999809265137]
	},
	{
		"bufferView":7,
		"type":"VEC3",
		"componentType":5126,
		"count":6336,
		"byteOffset":12,
		"min":[-1.0,
		-1.0,
		-1.0],
		"max":[1.0,
		1.0,
		1.0]
	},
	{
		"bufferView":7,
		"type":"VEC2",
		"componentType":5126,
		"count":6336,
		"byteOffset":24,
		"min":[0.0,
		0.0],
		"max":[1.0,
		1.0]
	},
	{
		"bufferView":8,
		"type":"SCALAR",
		"componentType":5123,
		"count":52020,
		"byteOffset":0,
		"min":[0],
		"max":[12086]
	},
	{
		"bufferView":9,
		"type":"VEC3",
		"componentType":5126,
		"count":12087,
		"byteOffset":0,
		"min":[-94.30599212646485,
		-52.238338470458987,
		-0.30000001192092898],
		"max":[94.30599212646485,
		52.238338470458987,
		9.300000190734864]
	},
	{
		"bufferView":9,
		"type":"VEC3",
		"componentType":5126,
		"count":12087,
		"byteOffset":12,
		"min":[-1.0,
		-0.9983898401260376,
		-1.0],
		"max":[1.0,
		0.9983898401260376,
		1.0]
	},
	{
		"bufferView":9,
		"type":"VEC2",
		"componentType":5126,
		"count":12087,
		"byteOffset":24,
		"min":[-0.3822980523109436,
		-0.27675873041152956],
		"max":[1.0,
		1.0]
	},
	{
		"bufferView":10,
		"type":"SCALAR",
		"componentType":5123,
		"count":50292,
		"byteOffset":0,
		"min":[0],
		"max":[13915]
	},
	{
		"bufferView":11,
		"type":"VEC3",
		"componentType":5126,
		"count":13916,
		"byteOffset":0,
		"min":[-121.7887191772461,
		-135.35777282714845,
		-0.6000000238418579],
		"max":[121.7887191772461,
		135.35777282714845,
		6.599999904632568]
	},
	{
		"bufferView":11,
		"type":"VEC3",
		"componentType":5126,
		"count":13916,
		"byteOffset":12,
		"min":[-1.0,
		-1.0,
		-1.0],
		"max":[1.0,
		1.0,
		1.0]
	},
	{
		"bufferView":11,
		"type":"VEC2",
		"componentType":5126,
		"count":13916,
		"byteOffset":24,
		"min":[0.0,
		0.0],
		"max":[1.0,
		1.0]
	},
	{
		"bufferView":12,
		"type":"SCALAR",
		"componentType":5123,
		"count":4632,
		"byteOffset":0,
		"min":[0],
		"max":[1806]
	},
	{
		"bufferView":13,
		"type":"VEC3",
		"componentType":5126,
		"count":1807,
		"byteOffset":0,
		"min":[-116.26396942138672,
		-58.31678009033203,
		-0.30000001192092898],
		"max":[116.26396942138672,
		58.31678009033203,
		6.300000190734863]
	},
	{
		"bufferView":13,
		"type":"VEC3",
		"componentType":5126,
		"count":1807,
		"byteOffset":12,
		"min":[-1.0,
		-1.0,
		-1.0],
		"max":[1.0,
		1.0,
		1.0]
	},
	{
		"bufferView":13,
		"type":"VEC2",
		"componentType":5126,
		"count":1807,
		"byteOffset":24,
		"min":[0.0,
		0.0],
		"max":[1.4976508617401124,
		1.0]
	},
	{
		"bufferView":14,
		"type":"SCALAR",
		"componentType":5123,
		"count":6540,
		"byteOffset":0,
		"min":[0],
		"max":[1527]
	},
	{
		"bufferView":15,
		"type":"VEC3",
		"componentType":5126,
		"count":1528,
		"byteOffset":0,
		"min":[-119.5108413696289,
		-131.8523712158203,
		-0.6000000238418579],
		"max":[119.5108413696289,
		131.8523712158203,
		3.5999999046325685]
	},
	{
		"bufferView":15,
		"type":"VEC3",
		"componentType":5126,
		"count":1528,
		"byteOffset":12,
		"min":[-0.9999964237213135,
		-0.9404062032699585,
		-1.0],
		"max":[0.9999990463256836,
		0.9999449849128723,
		1.0]
	},
	{
		"bufferView":15,
		"type":"VEC2",
		"componentType":5126,
		"count":1528,
		"byteOffset":24,
		"min":[0.0,
		0.0],
		"max":[1.0,
		1.0]
	},
	{
		"bufferView":16,
		"type":"SCALAR",
		"componentType":5123,
		"count":6180,
		"byteOffset":0,
		"min":[0],
		"max":[1597]
	},
	{
		"bufferView":17,
		"type":"VEC3",
		"componentType":5126,
		"count":1598,
		"byteOffset":0,
		"min":[-128.1927032470703,
		-143.69052124023438,
		-13.199999809265137],
		"max":[128.1927032470703,
		143.69052124023438,
		1.2000000476837159]
	},
	{
		"bufferView":17,
		"type":"VEC3",
		"componentType":5126,
		"count":1598,
		"byteOffset":12,
		"min":[-0.9999932050704956,
		-0.9281733632087708,
		-1.0],
		"max":[0.9999933838844299,
		0.9999892711639404,
		1.0]
	},
	{
		"bufferView":17,
		"type":"VEC2",
		"componentType":5126,
		"count":1598,
		"byteOffset":24,
		"min":[0.0,
		0.0],
		"max":[1.0,
		1.0]
	}],
	"bufferViews":[{
		"buffer":0,
		"byteOffset":0,
		"byteLength":64776,
		"target":34963
	},
	{
		"buffer":0,
		"byteOffset":64776,
		"byteLength":246400,
		"target":34962,
		"byteStride":32
	},
	{
		"buffer":1,
		"byteOffset":0,
		"byteLength":6888,
		"target":34963
	},
	{
		"buffer":1,
		"byteOffset":6888,
		"byteLength":27712,
		"target":34962,
		"byteStride":32
	},
	{
		"buffer":2,
		"byteOffset":0,
		"byteLength":13632,
		"target":34963
	},
	{
		"buffer":2,
		"byteOffset":13632,
		"byteLength":46400,
		"target":34962,
		"byteStride":32
	},
	{
		"buffer":3,
		"byteOffset":0,
		"byteLength":46824,
		"target":34963
	},
	{
		"buffer":3,
		"byteOffset":46824,
		"byteLength":202752,
		"target":34962,
		"byteStride":32
	},
	{
		"buffer":4,
		"byteOffset":0,
		"byteLength":104040,
		"target":34963
	},
	{
		"buffer":4,
		"byteOffset":104040,
		"byteLength":386784,
		"target":34962,
		"byteStride":32
	},
	{
		"buffer":5,
		"byteOffset":0,
		"byteLength":100584,
		"target":34963
	},
	{
		"buffer":5,
		"byteOffset":100584,
		"byteLength":445312,
		"target":34962,
		"byteStride":32
	},
	{
		"buffer":6,
		"byteOffset":0,
		"byteLength":9264,
		"target":34963
	},
	{
		"buffer":6,
		"byteOffset":9264,
		"byteLength":57824,
		"target":34962,
		"byteStride":32
	},
	{
		"buffer":7,
		"byteOffset":0,
		"byteLength":13080,
		"target":34963
	},
	{
		"buffer":7,
		"byteOffset":13080,
		"byteLength":48896,
		"target":34962,
		"byteStride":32
	},
	{
		"buffer":8,
		"byteOffset":0,
		"byteLength":12360,
		"target":34963
	},
	{
		"buffer":8,
		"byteOffset":12360,
		"byteLength":51136,
		"target":34962,
		"byteStride":32
	}],
	"buffers":[{
		"uri":"data:application/octet-stream;base64,",
		"byteLength":311176
	},
	{
		"uri":"data:application/octet-stream;base64,",
		"byteLength":34600
	},
	{
		"uri":"data:application/octet-stream;base64,",
		"byteLength":60032
	},
	{
		"uri":"data:application/octet-stream;base64,",
		"byteLength":249576
	},
	{
		"uri":"data:application/octet-stream;base64,",
		"byteLength":490824
	},
	{
		"uri":"data:application/octet-stream;base64,",
		"byteLength":545896
	},
	{
		"uri":"data:application/octet-stream;base64,",
		"byteLength":67088
	},
	{
		"uri":"data:application/octet-stream;base64,",
		"byteLength":61976
	},
	{
		"uri":"data:application/octet-stream;base64,",
		"byteLength":63496
	}],
	"images":[{
		"uri":"data:image/jpeg;base64,"
	},
	{
		"uri":"data:image/jpeg;base64,"
	}],
	"textures":[{
		"source":0,
		"sampler":0
	},
	{
		"source":1,
		"sampler":1
	}],
	"samplers":[{
		"magFilter":9729,
		"minFilter":9729,
		"wrapS":10497,
		"wrapT":10497
	},
	{
		"magFilter":9729,
		"minFilter":9729,
		"wrapS":10497,
		"wrapT":10497
	}],
	"materials":[{
		"pbrMetallicRoughness":{
			"baseColorFactor":[1.0,
			0.33333333333333328,
			0.0,
			1.0],
			"metallicRoughnessTexture":{
				"index":0
			},
			"metallicFactor":1.0,
			"roughnessFactor":1.0
		},
		"normalTexture":{
			"index":1,
			"scale":0.25
		},
		"emissiveFactor":[0.0,
		0.0,
		0.0],
		"alphaMode":"OPAQUE",
		"doubleSided":false,
		"name":"Mat"
	}]
}